<svg xmlns="http://www.w3.org/2000/svg">
	<defs>
		<symbol id="letter" viewBox="0 0 26 19">
			<g fill-rule="evenodd">
				<path d="M12.991 10.8907L24.4837 0.88208H1.52722L12.991 10.8907ZM25.555 19H0.4448C0.19914 19 0 18.8025 0 18.559V0.44104C0 0.19746 0.19914 0 0.4448 0H25.555C25.8007 0 25.9998 0.19746 25.9998 0.44104V18.5472C26.003 18.6662 25.9576 18.7814 25.8738 18.8667C25.7901 18.952 25.6751 19 25.555 19V19ZM25.1103 17.4358V1.51415L15.9814 9.45462L25.1103 17.4358ZM1.45484 18.1179H24.5433L15.3061 10.042L13.2757 11.8081C13.1948 11.8792 13.0902 11.918 12.9821 11.9169C12.8732 11.9176 12.7678 11.8789 12.6856 11.8081L10.6932 10.0679L1.45484 18.1179ZM0.88959 17.4344L10.0192 9.47913L0.88959 1.50484V17.4344Z" fill="#ffffff"/>
			</g>
		</symbol>
		<symbol id="twitter" viewBox="0 0 26 22">
			<g fill-rule="evenodd">
				<path d="M22.9371 3.47837C24.039 2.79191 24.8844 1.70343 25.2827 0.40679C24.2511 1.0424 23.1111 1.5048 21.8933 1.75269C20.9227 0.67375 19.5355 0 18.0002 0C15.0564 0 12.6681 2.48682 12.6681 5.55363C12.6681 5.98902 12.7139 6.4117 12.8054 6.81849C8.37213 6.58649 4.44245 4.37775 1.80994 1.0138C1.35059 1.83691 1.0881 2.79191 1.0881 3.80888C1.0881 5.73478 2.0297 7.43503 3.46117 8.43135C2.58825 8.40433 1.76416 8.15168 1.04385 7.73853V7.80686C1.04385 10.4987 2.88278 12.744 5.32453 13.2524C4.87738 13.3827 4.40582 13.4479 3.919 13.4479C3.57563 13.4479 3.23989 13.4145 2.91483 13.3494C3.59394 15.5549 5.5626 17.1614 7.89752 17.2043C6.07231 18.6948 3.77097 19.5831 1.27276 19.5831C0.8424 19.5831 0.41662 19.5577 0 19.5068C2.36086 21.08 5.16582 22 8.17679 22C17.9896 22 23.3538 13.5385 23.3538 6.19877C23.3538 5.95724 23.3492 5.71571 23.34 5.47895C24.3823 4.69556 25.2873 3.71831 26 2.60441C25.0447 3.04615 24.0161 3.34489 22.9371 3.47837V3.47837Z" fill="#68C6E1"/>
			</g>
		</symbol>
		<symbol id="linkedin" viewBox="0 0 28 26">
			<g fill-rule="evenodd">
				<path d="M0.70627 26H6.1537V8.33758H0.70627V26ZM6.62465 3.06166C6.58514 1.31856 5.34713 0 3.33373 0C1.31867 0 0 1.32189 0 3.06666C0 4.77813 1.28081 6.12832 3.25635 6.12832H3.29586C5.34713 6.12832 6.62465 4.77313 6.62465 3.06166V3.06166ZM28 16.179C28 10.7083 24.9527 8.16777 21.0741 8.16777C17.9478 8.16777 15.9887 9.89755 15.6265 11.1096V8.33758H9.49577C9.57479 9.80931 9.49577 26 9.49577 26H15.6265V16.4421C15.6265 15.911 15.6018 15.3799 15.7599 14.9987C16.1813 13.9365 17.0868 12.8343 18.715 12.8343C20.8436 12.8343 21.8116 14.4676 21.8116 16.86V26H28V16.179Z" fill="#247CB4"/>
			</g>
		</symbol>
		<symbol id="youtube" viewBox="0 0 32 22">
			<g fill-rule="evenodd">
				<path d="M22.2026 11.0156L11.7366 17.0393V4.9902L22.2026 11.0156ZM32 16.6008V5.39915C32 5.39915 32 0 26.4854 0H5.5127C5.5127 0 0 0 0 5.39915V16.6008C0 16.6008 0 22 5.5127 22C5.5127 22 20.4708 22.5 26.4854 22C32.5 21.5 32 16.6008 32 16.6008Z" fill="#DF6650"/>
			</g>
		</symbol>
		<symbol id="pinterest" viewBox="0 0 21 27">
			<g fill-rule="evenodd">
				<path d="M12.2541 19.5837C10.6113 19.4562 9.92083 18.6409 8.63184 17.8587C7.92362 21.5757 7.0582 25.1389 4.49396 27C3.7017 21.3819 5.65547 17.1623 6.56319 12.6832C5.01641 10.0794 6.74953 4.83693 10.0117 6.12796C14.0267 7.71688 6.53575 15.813 11.5648 16.8233C16.815 17.8787 18.9586 7.71059 15.7021 4.40354C10.9977 -0.37179 2.00859 4.2949 3.11352 11.1303C3.38332 12.8015 5.10958 13.3093 3.80345 15.6152C0.79221 14.9485 -0.10579 12.5734 0.00967012 9.40642C0.19602 4.22229 4.66601 0.59334 9.14972 0.09076C14.8201 -0.54389 20.1418 2.17311 20.8769 7.50818C21.7034 13.5305 18.3172 20.0514 12.2541 19.5837Z" fill="#E15B57"/>
			</g>
		</symbol>
		<symbol id="login" viewBox="0 0 15 15">
			<g fill-rule="evenodd">
				<path d="M4.52034 5.76826H1.23782C0.91833 5.76826 0.72 5.94961 0.72 6.24082C0.72 7.07871 0.72 7.9166 0.72 8.75449C0.72 9.04893 0.91923 9.23086 1.24081 9.23086H4.52094C4.52094 9.26367 4.52094 9.28682 4.52094 9.31026C4.52094 9.91944 4.52094 10.5286 4.52094 11.1378C4.51889 11.1811 4.52231 11.2245 4.53111 11.267C4.57389 11.4319 4.68666 11.543 4.86376 11.5916C5.05162 11.6432 5.21017 11.589 5.34688 11.4642C6.67907 10.2499 8.01137 9.03574 9.34376 7.82168C9.36051 7.80645 9.37726 7.79092 9.39252 7.77422C9.48088 7.68322 9.52014 7.55668 9.49842 7.43291C9.48047 7.31895 9.40927 7.23545 9.32342 7.15723C8.37313 6.29199 7.42285 5.42676 6.47256 4.56153C6.09723 4.22012 5.72261 3.87832 5.34867 3.53614C5.26285 3.45016 5.14777 3.39803 5.0253 3.38965C4.74619 3.37588 4.52034 3.56953 4.52034 3.8291C4.52034 4.4499 4.52034 5.071 4.52034 5.69209C4.52034 5.71494 4.52034 5.73896 4.52034 5.76826V5.76826ZM6.0394 14.0332C6.0394 14.5672 6.48138 15 7.02658 15C11.2493 15 14.6847 11.6356 14.6847 7.5C14.6847 3.36445 11.2493 0 7.02658 0C6.48138 0 6.0394 0.43285 6.0394 0.9668C6.0394 1.50074 6.48138 1.93359 7.02658 1.93359C10.161 1.93359 12.7103 4.43027 12.7103 7.5C12.7103 10.5697 10.1601 13.0664 7.02658 13.0664C6.48138 13.0664 6.0394 13.4993 6.0394 14.0332V14.0332Z"/>
			</g>
		</symbol>
	</defs>
</svg>